<svg xmlns="http://www.w3.org/2000/svg" fill="none" viewBox="0 0 205 62"><path fill="#fff" d="M156.961 13.782a6.89 6.89 0 100-13.782 6.89 6.89 0 000 13.782zM147.216 61.294v-7.822l2.559-.582c.582-.062.707-.26.707-.895V26.974c0-.51-.125-.707-.707-.895l-2.559-.635v-7.777h19.5v7.83l-2.568.645c-.573.188-.707.385-.707.895V52.03c0 .573.134.707.644.895l2.631.707v7.697l-19.5-.036zM111.714 61.294l-10.874-34.42a.768.768 0 00-.644-.572l-3.392-.573v-7.938h21.944v7.938l-2.56.77a1.03 1.03 0 00-.894 1.02c.043.717.172 1.426.384 2.112l4.672 18.426h.313l4.654-18.4a9.844 9.844 0 00.385-2.111 1.092 1.092 0 00-.958-1.02l-2.497-.77v-7.938h21.371v7.875l-3.517.698a.818.818 0 00-.644.645L128.905 61.32l-17.191-.026zM171.074 58.151a99.16 99.16 0 01.842-11.867h10.497l1.029 5.003c1.345.452 2.752.69 4.171.707 2.434 0 4.036-1.092 4.036-2.828 0-2.174-2.757-3.007-6.032-3.973-6.542-1.987-14.364-4.555-14.364-14.695s6.668-13.469 16.745-13.469c6.416 0 10.587 1.665 15.07 3.786a70.922 70.922 0 01-.698 11.222h-10.506l-.51-4.42a8.234 8.234 0 00-3.213-.645c-2.372 0-3.911.573-3.911 2.434 0 2.184 2.953 3.473 6.157 4.555 6.265 2.05 14.247 4.878 14.247 14.185s-5.906 13.853-17.066 13.853a38.297 38.297 0 01-16.494-3.848zM25.658 17.79v7.92l3.14.896c1.307.349 1.29 1.02.61 3.051l-6.086 18.445h-.439l-4.698-18.445c-.528-1.969-.52-2.792.609-3.051l3.338-.895v-7.92H0v7.92l3.58.698c.349.09.43.26.519.608l10.739 34.276h15.437l5.37-18.212 5.37 18.185h15.482L67.236 26.99a.894.894 0 01.626-.626l3.464-.68v-7.92H49.212v7.92l3.338.895c1.137.26 1.137 1.083.609 3.051L48.46 48.075h-.43l-6.12-18.418c-.672-2.031-.699-2.684.608-3.051l3.141-.895v-7.92H25.658zM81.447 41.641h5.79v-1.646c0-1.79-1.02-2.739-2.863-2.739-1.844 0-2.927.958-2.927 2.739v1.646zm-12.34 7.509v-8.395c0-7.696 5.977-12.788 15.016-12.788s15.008 5.092 15.008 12.788v7.16H81.447v1.718c0 1.844 2.166 3.052 4.475 3.052 2.309 0 4.582-1.02 4.958-2.605h8.206v6.265c-3.302 3.884-8.331 5.602-13.549 5.602-9.808-.009-16.43-5.1-16.43-12.797z"/></svg>