<svg viewBox="0 0 1448 511" preserveAspectRatio="none" fill="none" xmlns="http://www.w3.org/2000/svg">
<path fill-rule="evenodd" clip-rule="evenodd" d="M549.357 110.299C497.156 105.443 439.793 102.472 382.43 99.5C191.215 89.5945 5.78832e-05 79.689 6.48499e-05 -0.000102776L1448 2.38125e-05C1448 79.599 1272.04 87.7912 1096.08 95.9834C1008.21 100.075 920.327 104.166 854.368 117.153L866.25 123.915L941 150.955L723.002 211.835L880.042 323.506L691.551 368.805L832.098 405.249L666.232 511L759.854 414.395L597.628 368.805L708.736 301.959L538.718 228.902L737.935 156.15L549.357 110.299Z" fill="url(#paint0_linear_742_15320)"/>
<defs>
<linearGradient id="paint0_linear_742_15320" x1="693.521" y1="176.433" x2="693.521" y2="560.835" gradientUnits="userSpaceOnUse">
<stop/>
<stop offset="1" stop-color="#6A6A6A"/>
</linearGradient>
</defs>
</svg>
