<svg xmlns="http://www.w3.org/2000/svg" fill="none" viewBox="0 0 126 283"><path fill="#F94141" d="M2.853 17.62a3.29 3.29 0 00.04-.38c0-.747-.44-1.207-1.32-1.38a6.497 6.497 0 011-1.96 5.635 5.635 0 011.64-1.5c.626-.373 1.273-.56 1.94-.56h2.36c.906 0 1.62.227 2.14.68.52.453.78 1.067.78 1.84 0 .2-.02.413-.06.64l-1.42 8h-1.44l1.42-8c.026-.187.04-.32.04-.4 0-.453-.147-.813-.44-1.08-.294-.267-.694-.4-1.2-.4h-2.18c-.547 0-1.094.2-1.64.6-.534.4-.967.927-1.3 1.58.36.187.633.447.82.78.2.32.3.687.3 1.1 0 .08-.014.227-.04.44L3.353 23h-1.44l.94-5.38zm10.776-11.7c0 .547-.167 1.013-.5 1.4-.334.387-.76.613-1.28.68.16.36.24.793.24 1.3 0 .28-.034.62-.1 1.02-1.507-.44-2.847-.727-4.02-.86-1.187-.133-2.7-.2-4.54-.2.426-1.093 1.066-1.947 1.92-2.56.853-.613 1.82-.92 2.9-.92.693 0 1.273.107 1.74.32.106-.48.353-.873.74-1.18.373-.307.813-.46 1.32-.46.466 0 .846.14 1.14.42.293.267.44.613.44 1.04zm-2 1.24c.293 0 .54-.107.74-.32.2-.213.3-.473.3-.78 0-.213-.067-.38-.2-.5-.134-.133-.314-.2-.54-.2a.974.974 0 00-.74.32c-.2.213-.3.473-.3.78 0 .213.066.387.2.52.133.12.313.18.54.18zm-.9 1.78c.026-.613-.194-1.107-.66-1.48-.48-.373-1.114-.56-1.9-.56a3.58 3.58 0 00-1.66.38c-.507.253-.9.607-1.18 1.06.92-.027 1.86.013 2.82.12.946.107 1.806.267 2.58.48zm1.66-8.66h1.36l-.6 3.36h-1.36l.6-3.36zm7.555 11.52c.533 0 .96.147 1.28.44.32.28.48.653.48 1.12 0 .067-.014.193-.04.38l-1.22 6.9c-.133.733-.42 1.313-.86 1.74-.44.413-.994.62-1.66.62h-.96c-.24 0-.46-.067-.66-.2a1.203 1.203 0 01-.42-.56l-2.44-6.38h1.56l2.26 5.9h.66a.95.95 0 00.7-.28c.2-.2.327-.48.38-.84l.9-5.1c-.187.08-.413.12-.68.12-.494 0-.893-.147-1.2-.44-.294-.293-.44-.68-.44-1.16 0-.653.22-1.193.66-1.62.453-.427 1.02-.64 1.7-.64zm-.46 2.9c.32 0 .586-.113.8-.34.227-.227.34-.5.34-.82a.694.694 0 00-.22-.54c-.134-.147-.327-.22-.58-.22-.334 0-.614.113-.84.34-.214.227-.32.5-.32.82 0 .227.073.413.22.56.146.133.346.2.6.2zm15.478-1.34c0 .44-.12.84-.36 1.2-.24.347-.573.613-1 .8l-.02.02c.253.253.38.56.38.92 0 .173-.02.38-.06.62L32.822 23h-1.44l1.1-6.18c.013-.067.02-.153.02-.26 0-.133-.027-.227-.08-.28-.053-.053-.14-.08-.26-.08l-5.82 6.8h-1.52l1.32-7.44c-.2.067-.413.1-.64.1-.507 0-.913-.14-1.22-.42-.293-.293-.44-.673-.44-1.14 0-.667.22-1.213.66-1.64.453-.44 1.02-.66 1.7-.66.533 0 .953.14 1.26.42.32.28.48.66.48 1.14 0 .067-.013.193-.04.38l-1.3 7.32 4.94-5.8a1.489 1.489 0 01-.46-.54 1.871 1.871 0 01-.14-.72c0-.627.213-1.147.64-1.56.44-.427.987-.64 1.64-.64.533 0 .953.147 1.26.44.32.28.48.653.48 1.12zm-2.2 1.32c.32 0 .587-.113.8-.34.227-.227.34-.5.34-.82a.694.694 0 00-.22-.54c-.133-.147-.327-.22-.58-.22-.32 0-.593.113-.82.34-.213.227-.32.507-.32.84 0 .227.067.407.2.54.147.133.347.2.6.2zm-7.04.02c.333 0 .607-.113.82-.34.227-.227.34-.5.34-.82a.694.694 0 00-.22-.54c-.147-.147-.347-.22-.6-.22-.32 0-.593.113-.82.34-.213.213-.32.487-.32.82a.8.8 0 00.2.56c.147.133.347.2.6.2zm20.231 4.76c.267.133.474.327.62.58.16.253.24.54.24.86 0 .653-.226 1.2-.68 1.64-.44.44-.993.66-1.66.66-.533 0-.96-.14-1.28-.42-.32-.293-.48-.673-.48-1.14 0-.453.127-.84.38-1.16-.68.2-1.38.527-2.1.98-.72.44-1.36.953-1.92 1.54h-1.4l1.32-7.46c-.173.08-.386.12-.64.12-.506 0-.913-.14-1.22-.42-.293-.293-.44-.673-.44-1.14 0-.667.22-1.213.66-1.64.454-.44 1.02-.66 1.7-.66.534 0 .954.14 1.26.42.32.28.48.66.48 1.14 0 .067-.013.193-.04.38l-1.34 7.58c.68-.587 1.487-1.08 2.42-1.48.947-.413 1.86-.667 2.74-.76l1.26-7.08h1.44l-1.32 7.46zm-7.38-4.76c.334 0 .607-.113.82-.34.227-.227.34-.5.34-.82a.694.694 0 00-.22-.54c-.146-.147-.346-.22-.6-.22-.32 0-.593.113-.82.34-.213.213-.32.487-.32.82a.8.8 0 00.2.56c.147.133.347.2.6.2zm6.02 7.52c.32 0 .587-.113.8-.34.227-.24.34-.527.34-.86a.694.694 0 00-.22-.54c-.133-.147-.326-.22-.58-.22-.32 0-.593.12-.82.36-.226.227-.34.507-.34.84 0 .227.074.413.22.56.147.133.347.2.6.2zm4.621-16.3c0 .547-.166 1.013-.5 1.4-.333.387-.76.613-1.28.68.16.36.24.793.24 1.3 0 .28-.033.62-.1 1.02-1.506-.44-2.846-.727-4.02-.86-1.186-.133-2.7-.2-4.54-.2.427-1.093 1.067-1.947 1.92-2.56.854-.613 1.82-.92 2.9-.92.694 0 1.274.107 1.74.32.107-.48.354-.873.74-1.18.374-.307.814-.46 1.32-.46.467 0 .847.14 1.14.42.294.267.44.613.44 1.04zm-2 1.24c.294 0 .54-.107.74-.32.2-.213.3-.473.3-.78 0-.213-.066-.38-.2-.5-.133-.133-.313-.2-.54-.2a.974.974 0 00-.74.32c-.2.213-.3.473-.3.78 0 .213.067.387.2.52.134.12.314.18.54.18zm-.9 1.78c.027-.613-.193-1.107-.66-1.48-.48-.373-1.113-.56-1.9-.56a3.58 3.58 0 00-1.66.38c-.506.253-.9.607-1.18 1.06.92-.027 1.86.013 2.82.12.947.107 1.807.267 2.58.48zm1.66-8.66h1.36l-.6 3.36h-1.36l.6-3.36zm7.614 11.52c.534 0 .96.147 1.28.44.32.28.48.653.48 1.12 0 .067-.013.193-.04.38l-1.22 6.9c-.133.733-.42 1.313-.86 1.74-.44.413-.993.62-1.66.62h-.96c-.24 0-.46-.067-.66-.2a1.202 1.202 0 01-.42-.56l-2.44-6.38h1.56l2.26 5.9h.66a.95.95 0 00.7-.28c.2-.2.327-.48.38-.84l.9-5.1c-.186.08-.413.12-.68.12-.493 0-.893-.147-1.2-.44-.293-.293-.44-.68-.44-1.16 0-.653.22-1.193.66-1.62.454-.427 1.02-.64 1.7-.64zm-.46 2.9c.32 0 .587-.113.8-.34.227-.227.34-.5.34-.82a.694.694 0 00-.22-.54c-.133-.147-.326-.22-.58-.22a1.14 1.14 0 00-.84.34c-.213.227-.32.5-.32.82 0 .227.074.413.22.56.147.133.347.2.6.2zm7.438 8.3c-.32 0-.566-.073-.74-.22-.173-.16-.26-.387-.26-.68 0-.133.007-.233.02-.3l.58-3.28c.054-.293.147-.553.28-.78.147-.227.36-.513.64-.86.267-.333.474-.62.62-.86.147-.24.247-.507.3-.8l.14-.76c.027-.16.04-.273.04-.34 0-.36-.113-.647-.34-.86-.213-.213-.506-.32-.88-.32h-.44c-.413 0-.753.067-1.02.2-.266.12-.493.32-.68.6l.02.02c.24-.107.487-.16.74-.16.467 0 .827.133 1.08.4.267.253.4.593.4 1.02 0 .627-.213 1.147-.64 1.56-.426.413-.96.62-1.6.62-.493 0-.893-.133-1.2-.4-.293-.28-.44-.647-.44-1.1 0-.093.014-.22.04-.38l.14-.78c.147-.827.514-1.48 1.1-1.96.6-.493 1.314-.74 2.14-.74h.44c.76 0 1.36.187 1.8.56.44.373.66.873.66 1.5 0 .173-.02.36-.06.56l-.14.76a2.984 2.984 0 01-.36 1.02c-.16.293-.366.607-.62.94-.2.28-.36.52-.48.72-.12.2-.2.407-.24.62l-.58 3.26h1.36c.36 0 .66-.12.9-.36.254-.253.42-.6.5-1.04l1.48-8.38h1.44l-1.48 8.38c-.146.827-.466 1.473-.96 1.94-.493.453-1.106.68-1.84.68h-1.86zm-1.6-6.72c.307 0 .567-.107.78-.32a1.13 1.13 0 00.32-.8.61.61 0 00-.22-.5c-.133-.133-.32-.2-.56-.2-.32 0-.586.107-.8.32-.2.213-.3.473-.3.78 0 .213.067.387.2.52.147.133.34.2.58.2zm16.254-4.44c.894 0 1.594.233 2.1.7.52.453.78 1.067.78 1.84 0 .213-.02.433-.06.66l-.92 5.2c-.16.907-.493 1.593-1 2.06-.493.467-1.153.7-1.98.7h-4.78c-.32 0-.566-.073-.74-.22-.173-.16-.26-.387-.26-.68 0-.133.007-.233.02-.3l.7-3.96c.107-.587.367-1.053.78-1.4.427-.36.94-.54 1.54-.54.534 0 .96.147 1.28.44.32.293.48.673.48 1.14 0 .653-.213 1.2-.64 1.64-.426.427-.966.64-1.62.64-.28 0-.513-.047-.7-.14l-.36 2.1h4.3c.494 0 .847-.113 1.06-.34.227-.24.387-.62.48-1.14l.92-5.2c.027-.213.04-.36.04-.44 0-.453-.126-.813-.38-1.08-.253-.267-.6-.4-1.04-.4h-2.56c-.666 0-1.226.187-1.68.56-.44.373-.72.887-.84 1.54h-1.4c.187-1.053.627-1.88 1.32-2.48.707-.6 1.574-.9 2.6-.9h2.56zm-3.96 5.04c-.32 0-.593.113-.82.34-.213.227-.32.5-.32.82a.8.8 0 00.2.56c.147.133.347.2.6.2.334 0 .607-.113.82-.34.227-.227.34-.5.34-.82a.694.694 0 00-.22-.54c-.146-.147-.346-.22-.6-.22zm15.375-5.08c.534 0 .96.147 1.28.44.32.28.48.653.48 1.12 0 .067-.013.193-.04.38l-1.22 6.9c-.133.733-.42 1.313-.86 1.74-.44.413-.993.62-1.66.62h-.96c-.24 0-.46-.067-.66-.2a1.203 1.203 0 01-.42-.56l-2.44-6.38h1.56l2.26 5.9h.66a.95.95 0 00.7-.28c.2-.2.327-.48.38-.84l.9-5.1c-.186.08-.413.12-.68.12-.493 0-.893-.147-1.2-.44-.293-.293-.44-.68-.44-1.16 0-.653.22-1.193.66-1.62.454-.427 1.02-.64 1.7-.64zm-.46 2.9c.32 0 .587-.113.8-.34.227-.227.34-.5.34-.82a.694.694 0 00-.22-.54c-.133-.147-.326-.22-.58-.22-.333 0-.613.113-.84.34-.213.227-.32.5-.32.82 0 .227.074.413.22.56.147.133.347.2.6.2zm14.858-4.06l-.08.16c-.253.493-.52.887-.8 1.18a2.63 2.63 0 01-1.02.68c.494.387.74.96.74 1.72 0 .213-.02.433-.06.66l-1.4 7.96h-1.44l.2-1.14c.04-.36.06-.693.06-1 0-1.093-.246-1.94-.74-2.54-.48-.6-1.173-.9-2.08-.9-.653 0-1.2.173-1.64.52-.426.347-.693.827-.8 1.44l-.02.08c.2-.08.42-.12.66-.12.494 0 .894.14 1.2.42.307.28.46.653.46 1.12 0 .693-.22 1.253-.66 1.68-.426.427-.993.64-1.7.64-.533 0-.96-.14-1.28-.42-.32-.293-.48-.673-.48-1.14 0-.093.014-.22.04-.38l.28-1.64c.187-1.093.634-1.947 1.34-2.56.72-.613 1.634-.92 2.74-.92.774 0 1.447.167 2.02.5.574.333.987.8 1.24 1.4h.02l.54-3a4.14 4.14 0 00.04-.46c0-.453-.126-.807-.38-1.06-.24-.267-.586-.4-1.04-.4h-2.22c-.64 0-1.193.193-1.66.58-.466.387-.753.893-.86 1.52h-1.4c.187-1.027.627-1.847 1.32-2.46.694-.613 1.56-.92 2.6-.92h2.64c.547 0 .967-.073 1.26-.22.307-.16.58-.433.82-.82l.1-.16h1.44zm-7.84 10.42a.694.694 0 00-.22-.54c-.146-.147-.346-.22-.6-.22-.32 0-.593.113-.82.34-.213.227-.32.5-.32.82 0 .227.074.413.22.56.147.133.347.2.6.2.32 0 .587-.113.8-.34.227-.227.34-.5.34-.82zm16.16-9.22c.906 0 1.62.227 2.14.68.52.453.78 1.067.78 1.84 0 .2-.02.413-.06.64l-1.42 8h-1.44l1.42-8c.026-.187.04-.32.04-.4 0-.453-.147-.813-.44-1.08-.294-.267-.694-.4-1.2-.4h-1.84c-.547 0-1.094.2-1.64.6-.534.4-.967.927-1.3 1.58.386.213.7.493.94.84s.36.72.36 1.12c0 .08-.014.2-.04.36l-.64 3.64c-.107.587-.367 1.06-.78 1.42-.4.347-.887.52-1.46.52-.507 0-.927-.147-1.26-.44-.334-.293-.5-.673-.5-1.14 0-.653.213-1.193.64-1.62.426-.44.966-.66 1.62-.66.24 0 .446.033.62.1l.32-1.82c.013-.067.02-.167.02-.3 0-.387-.134-.7-.4-.94-.254-.253-.614-.427-1.08-.52a6.475 6.475 0 011-1.96 5.623 5.623 0 011.64-1.5c.626-.373 1.273-.56 1.94-.56h2.02zm-6.5 10.38c.333 0 .606-.113.82-.34.226-.227.34-.5.34-.82a.696.696 0 00-.22-.54c-.147-.147-.347-.22-.6-.22-.32 0-.594.113-.82.34-.214.213-.32.487-.32.82 0 .227.066.413.2.56.146.133.346.2.6.2zm18.242-7.18c.027-.213.04-.36.04-.44 0-.453-.126-.813-.38-1.08-.253-.267-.6-.4-1.04-.4h-1.5a2.16 2.16 0 00-1.56.62c-.413.413-.686.993-.82 1.74h-1.4c.2-1.147.634-2.04 1.3-2.68.667-.64 1.494-.96 2.48-.96h1.5c.894 0 1.594.233 2.1.7.52.453.78 1.067.78 1.84 0 .213-.02.433-.06.66l-1.4 7.96h-1.44l1.4-7.96zM55 47a8 8 0 1016 0 8 8 0 00-16 0zm6.5 221l-7.16 15h17.32l-7.16-15h-3zm0-221v222.5h3V47h-3z"/></svg>