<svg width="126" height="283" viewBox="0 0 126 283" fill="none" xmlns="http://www.w3.org/2000/svg">
<path d="M2.85258 17.62C2.87924 17.4333 2.89258 17.3067 2.89258 17.24C2.89258 16.4933 2.45258 16.0333 1.57258 15.86C1.78591 15.1667 2.11924 14.5133 2.57258 13.9C3.03924 13.2733 3.58591 12.7733 4.21258 12.4C4.83924 12.0267 5.48591 11.84 6.15258 11.84H8.51258C9.41925 11.84 10.1326 12.0667 10.6526 12.52C11.1726 12.9733 11.4326 13.5867 11.4326 14.36C11.4326 14.56 11.4126 14.7733 11.3726 15L9.95258 23H8.51258L9.93258 15C9.95925 14.8133 9.97258 14.68 9.97258 14.6C9.97258 14.1467 9.82591 13.7867 9.53258 13.52C9.23925 13.2533 8.83925 13.12 8.33258 13.12H6.15258C5.60591 13.12 5.05925 13.32 4.51258 13.72C3.97925 14.12 3.54591 14.6467 3.21258 15.3C3.57258 15.4867 3.84591 15.7467 4.03258 16.08C4.23258 16.4 4.33258 16.7667 4.33258 17.18C4.33258 17.26 4.31925 17.4067 4.29258 17.62L3.35258 23H1.91258L2.85258 17.62ZM13.6285 5.92C13.6285 6.46667 13.4618 6.93333 13.1285 7.32C12.7952 7.70667 12.3685 7.93333 11.8485 8C12.0085 8.36 12.0885 8.79333 12.0885 9.3C12.0885 9.58 12.0552 9.92 11.9885 10.32C10.4818 9.88 9.14185 9.59333 7.96852 9.46C6.78185 9.32667 5.26852 9.26 3.42852 9.26C3.85518 8.16667 4.49518 7.31333 5.34852 6.7C6.20185 6.08667 7.16852 5.78 8.24852 5.78C8.94185 5.78 9.52185 5.88667 9.98852 6.1C10.0952 5.62 10.3418 5.22667 10.7285 4.92C11.1018 4.61333 11.5418 4.46 12.0485 4.46C12.5152 4.46 12.8952 4.6 13.1885 4.88C13.4818 5.14667 13.6285 5.49333 13.6285 5.92ZM11.6285 7.16C11.9218 7.16 12.1685 7.05333 12.3685 6.84C12.5685 6.62667 12.6685 6.36667 12.6685 6.06C12.6685 5.84667 12.6018 5.68 12.4685 5.56C12.3352 5.42667 12.1552 5.36 11.9285 5.36C11.6352 5.36 11.3885 5.46667 11.1885 5.68C10.9885 5.89333 10.8885 6.15333 10.8885 6.46C10.8885 6.67333 10.9552 6.84667 11.0885 6.98C11.2218 7.1 11.4018 7.16 11.6285 7.16ZM10.7285 8.94C10.7552 8.32667 10.5352 7.83333 10.0685 7.46C9.58852 7.08667 8.95518 6.9 8.16852 6.9C7.55518 6.9 7.00185 7.02667 6.50852 7.28C6.00185 7.53333 5.60852 7.88667 5.32852 8.34C6.24852 8.31333 7.18852 8.35333 8.14852 8.46C9.09518 8.56667 9.95518 8.72667 10.7285 8.94ZM12.389 0.279999H13.749L13.149 3.64H11.789L12.389 0.279999ZM19.9438 11.8C20.4772 11.8 20.9038 11.9467 21.2238 12.24C21.5438 12.52 21.7038 12.8933 21.7038 13.36C21.7038 13.4267 21.6905 13.5533 21.6638 13.74L20.4438 20.64C20.3105 21.3733 20.0238 21.9533 19.5838 22.38C19.1438 22.7933 18.5905 23 17.9238 23H16.9638C16.7238 23 16.5038 22.9333 16.3038 22.8C16.1172 22.6667 15.9772 22.48 15.8838 22.24L13.4438 15.86H15.0038L17.2638 21.76H17.9238C18.2038 21.76 18.4372 21.6667 18.6238 21.48C18.8238 21.28 18.9505 21 19.0038 20.64L19.9038 15.54C19.7172 15.62 19.4905 15.66 19.2238 15.66C18.7305 15.66 18.3305 15.5133 18.0238 15.22C17.7305 14.9267 17.5838 14.54 17.5838 14.06C17.5838 13.4067 17.8038 12.8667 18.2438 12.44C18.6972 12.0133 19.2638 11.8 19.9438 11.8ZM19.4838 14.7C19.8038 14.7 20.0705 14.5867 20.2838 14.36C20.5105 14.1333 20.6238 13.86 20.6238 13.54C20.6238 13.3133 20.5505 13.1333 20.4038 13C20.2705 12.8533 20.0772 12.78 19.8238 12.78C19.4905 12.78 19.2105 12.8933 18.9838 13.12C18.7705 13.3467 18.6638 13.62 18.6638 13.94C18.6638 14.1667 18.7372 14.3533 18.8838 14.5C19.0305 14.6333 19.2305 14.7 19.4838 14.7ZM34.962 13.36C34.962 13.8 34.842 14.2 34.602 14.56C34.362 14.9067 34.0286 15.1733 33.602 15.36L33.582 15.38C33.8353 15.6333 33.962 15.94 33.962 16.3C33.962 16.4733 33.942 16.68 33.902 16.92L32.822 23H31.382L32.482 16.82C32.4953 16.7533 32.502 16.6667 32.502 16.56C32.502 16.4267 32.4753 16.3333 32.422 16.28C32.3686 16.2267 32.282 16.2 32.162 16.2L26.342 23H24.822L26.142 15.56C25.942 15.6267 25.7286 15.66 25.502 15.66C24.9953 15.66 24.5886 15.52 24.282 15.24C23.9886 14.9467 23.842 14.5667 23.842 14.1C23.842 13.4333 24.062 12.8867 24.502 12.46C24.9553 12.02 25.522 11.8 26.202 11.8C26.7353 11.8 27.1553 11.94 27.462 12.22C27.782 12.5 27.942 12.88 27.942 13.36C27.942 13.4267 27.9286 13.5533 27.902 13.74L26.602 21.06L31.542 15.26C31.342 15.1133 31.1886 14.9333 31.082 14.72C30.9886 14.4933 30.942 14.2533 30.942 14C30.942 13.3733 31.1553 12.8533 31.582 12.44C32.022 12.0133 32.5686 11.8 33.222 11.8C33.7553 11.8 34.1753 11.9467 34.482 12.24C34.802 12.52 34.962 12.8933 34.962 13.36ZM32.762 14.68C33.082 14.68 33.3486 14.5667 33.562 14.34C33.7886 14.1133 33.902 13.84 33.902 13.52C33.902 13.2933 33.8286 13.1133 33.682 12.98C33.5486 12.8333 33.3553 12.76 33.102 12.76C32.782 12.76 32.5086 12.8733 32.282 13.1C32.0686 13.3267 31.962 13.6067 31.962 13.94C31.962 14.1667 32.0286 14.3467 32.162 14.48C32.3086 14.6133 32.5086 14.68 32.762 14.68ZM25.722 14.7C26.0553 14.7 26.3286 14.5867 26.542 14.36C26.7686 14.1333 26.882 13.86 26.882 13.54C26.882 13.3133 26.8086 13.1333 26.662 13C26.5153 12.8533 26.3153 12.78 26.062 12.78C25.742 12.78 25.4686 12.8933 25.242 13.12C25.0286 13.3333 24.922 13.6067 24.922 13.94C24.922 14.1667 24.9886 14.3533 25.122 14.5C25.2686 14.6333 25.4686 14.7 25.722 14.7ZM45.9535 19.46C46.2202 19.5933 46.4268 19.7867 46.5735 20.04C46.7335 20.2933 46.8135 20.58 46.8135 20.9C46.8135 21.5533 46.5868 22.1 46.1335 22.54C45.6935 22.98 45.1402 23.2 44.4735 23.2C43.9402 23.2 43.5135 23.06 43.1935 22.78C42.8735 22.4867 42.7135 22.1067 42.7135 21.64C42.7135 21.1867 42.8402 20.8 43.0935 20.48C42.4135 20.68 41.7135 21.0067 40.9935 21.46C40.2735 21.9 39.6335 22.4133 39.0735 23H37.6735L38.9935 15.54C38.8202 15.62 38.6068 15.66 38.3535 15.66C37.8468 15.66 37.4402 15.52 37.1335 15.24C36.8402 14.9467 36.6935 14.5667 36.6935 14.1C36.6935 13.4333 36.9135 12.8867 37.3535 12.46C37.8068 12.02 38.3735 11.8 39.0535 11.8C39.5868 11.8 40.0068 11.94 40.3135 12.22C40.6335 12.5 40.7935 12.88 40.7935 13.36C40.7935 13.4267 40.7802 13.5533 40.7535 13.74L39.4135 21.32C40.0935 20.7333 40.9002 20.24 41.8335 19.84C42.7802 19.4267 43.6935 19.1733 44.5735 19.08L45.8335 12H47.2735L45.9535 19.46ZM38.5735 14.7C38.9068 14.7 39.1802 14.5867 39.3935 14.36C39.6202 14.1333 39.7335 13.86 39.7335 13.54C39.7335 13.3133 39.6602 13.1333 39.5135 13C39.3668 12.8533 39.1668 12.78 38.9135 12.78C38.5935 12.78 38.3202 12.8933 38.0935 13.12C37.8802 13.3333 37.7735 13.6067 37.7735 13.94C37.7735 14.1667 37.8402 14.3533 37.9735 14.5C38.1202 14.6333 38.3202 14.7 38.5735 14.7ZM44.5935 22.22C44.9135 22.22 45.1802 22.1067 45.3935 21.88C45.6202 21.64 45.7335 21.3533 45.7335 21.02C45.7335 20.7933 45.6602 20.6133 45.5135 20.48C45.3802 20.3333 45.1868 20.26 44.9335 20.26C44.6135 20.26 44.3402 20.38 44.1135 20.62C43.8868 20.8467 43.7735 21.1267 43.7735 21.46C43.7735 21.6867 43.8468 21.8733 43.9935 22.02C44.1402 22.1533 44.3402 22.22 44.5935 22.22ZM49.2145 5.92C49.2145 6.46667 49.0478 6.93333 48.7145 7.32C48.3811 7.70667 47.9545 7.93333 47.4345 8C47.5945 8.36 47.6745 8.79333 47.6745 9.3C47.6745 9.58 47.6411 9.92 47.5745 10.32C46.0678 9.88 44.7278 9.59333 43.5545 9.46C42.3678 9.32667 40.8545 9.26 39.0145 9.26C39.4411 8.16667 40.0811 7.31333 40.9345 6.7C41.7878 6.08667 42.7545 5.78 43.8345 5.78C44.5278 5.78 45.1078 5.88667 45.5745 6.1C45.6811 5.62 45.9278 5.22667 46.3145 4.92C46.6878 4.61333 47.1278 4.46 47.6345 4.46C48.1011 4.46 48.4811 4.6 48.7745 4.88C49.0678 5.14667 49.2145 5.49333 49.2145 5.92ZM47.2145 7.16C47.5078 7.16 47.7545 7.05333 47.9545 6.84C48.1545 6.62667 48.2545 6.36667 48.2545 6.06C48.2545 5.84667 48.1878 5.68 48.0545 5.56C47.9211 5.42667 47.7411 5.36 47.5145 5.36C47.2211 5.36 46.9745 5.46667 46.7745 5.68C46.5745 5.89333 46.4745 6.15333 46.4745 6.46C46.4745 6.67333 46.5411 6.84667 46.6745 6.98C46.8078 7.1 46.9878 7.16 47.2145 7.16ZM46.3145 8.94C46.3411 8.32667 46.1211 7.83333 45.6545 7.46C45.1745 7.08667 44.5411 6.9 43.7545 6.9C43.1411 6.9 42.5878 7.02667 42.0945 7.28C41.5878 7.53333 41.1945 7.88667 40.9145 8.34C41.8345 8.31333 42.7745 8.35333 43.7345 8.46C44.6811 8.56667 45.5411 8.72667 46.3145 8.94ZM47.9749 0.279999H49.3349L48.7349 3.64H47.3749L47.9749 0.279999ZM55.5884 11.8C56.1217 11.8 56.5484 11.9467 56.8684 12.24C57.1884 12.52 57.3484 12.8933 57.3484 13.36C57.3484 13.4267 57.335 13.5533 57.3084 13.74L56.0884 20.64C55.955 21.3733 55.6684 21.9533 55.2284 22.38C54.7884 22.7933 54.235 23 53.5684 23H52.6084C52.3684 23 52.1484 22.9333 51.9484 22.8C51.7617 22.6667 51.6217 22.48 51.5284 22.24L49.0884 15.86H50.6484L52.9084 21.76H53.5684C53.8484 21.76 54.0817 21.6667 54.2684 21.48C54.4684 21.28 54.595 21 54.6484 20.64L55.5484 15.54C55.3617 15.62 55.135 15.66 54.8684 15.66C54.375 15.66 53.975 15.5133 53.6684 15.22C53.375 14.9267 53.2284 14.54 53.2284 14.06C53.2284 13.4067 53.4484 12.8667 53.8884 12.44C54.3417 12.0133 54.9084 11.8 55.5884 11.8ZM55.1284 14.7C55.4484 14.7 55.715 14.5867 55.9284 14.36C56.155 14.1333 56.2684 13.86 56.2684 13.54C56.2684 13.3133 56.195 13.1333 56.0484 13C55.915 12.8533 55.7217 12.78 55.4684 12.78C55.135 12.78 54.855 12.8933 54.6284 13.12C54.415 13.3467 54.3084 13.62 54.3084 13.94C54.3084 14.1667 54.3817 14.3533 54.5284 14.5C54.675 14.6333 54.875 14.7 55.1284 14.7ZM62.5665 23C62.2465 23 61.9998 22.9267 61.8265 22.78C61.6532 22.62 61.5665 22.3933 61.5665 22.1C61.5665 21.9667 61.5732 21.8667 61.5865 21.8L62.1665 18.52C62.2198 18.2267 62.3132 17.9667 62.4465 17.74C62.5932 17.5133 62.8065 17.2267 63.0865 16.88C63.3532 16.5467 63.5598 16.26 63.7065 16.02C63.8532 15.78 63.9532 15.5133 64.0065 15.22L64.1465 14.46C64.1732 14.3 64.1865 14.1867 64.1865 14.12C64.1865 13.76 64.0732 13.4733 63.8465 13.26C63.6332 13.0467 63.3398 12.94 62.9665 12.94H62.5265C62.1132 12.94 61.7732 13.0067 61.5065 13.14C61.2398 13.26 61.0132 13.46 60.8265 13.74L60.8465 13.76C61.0865 13.6533 61.3332 13.6 61.5865 13.6C62.0532 13.6 62.4132 13.7333 62.6665 14C62.9332 14.2533 63.0665 14.5933 63.0665 15.02C63.0665 15.6467 62.8532 16.1667 62.4265 16.58C61.9998 16.9933 61.4665 17.2 60.8265 17.2C60.3332 17.2 59.9332 17.0667 59.6265 16.8C59.3332 16.52 59.1865 16.1533 59.1865 15.7C59.1865 15.6067 59.1998 15.48 59.2265 15.32L59.3665 14.54C59.5132 13.7133 59.8798 13.06 60.4665 12.58C61.0665 12.0867 61.7798 11.84 62.6065 11.84H63.0465C63.8065 11.84 64.4065 12.0267 64.8465 12.4C65.2865 12.7733 65.5065 13.2733 65.5065 13.9C65.5065 14.0733 65.4865 14.26 65.4465 14.46L65.3065 15.22C65.2398 15.6067 65.1198 15.9467 64.9465 16.24C64.7865 16.5333 64.5798 16.8467 64.3265 17.18C64.1265 17.46 63.9665 17.7 63.8465 17.9C63.7265 18.1 63.6465 18.3067 63.6065 18.52L63.0265 21.78H64.3865C64.7465 21.78 65.0465 21.66 65.2865 21.42C65.5398 21.1667 65.7065 20.82 65.7865 20.38L67.2665 12H68.7065L67.2265 20.38C67.0798 21.2067 66.7598 21.8533 66.2665 22.32C65.7732 22.7733 65.1598 23 64.4265 23H62.5665ZM60.9665 16.28C61.2732 16.28 61.5332 16.1733 61.7465 15.96C61.9598 15.7333 62.0665 15.4667 62.0665 15.16C62.0665 14.9467 61.9932 14.78 61.8465 14.66C61.7132 14.5267 61.5265 14.46 61.2865 14.46C60.9665 14.46 60.6998 14.5667 60.4865 14.78C60.2865 14.9933 60.1865 15.2533 60.1865 15.56C60.1865 15.7733 60.2532 15.9467 60.3865 16.08C60.5332 16.2133 60.7265 16.28 60.9665 16.28ZM77.2202 11.84C78.1136 11.84 78.8136 12.0733 79.3202 12.54C79.8402 12.9933 80.1002 13.6067 80.1002 14.38C80.1002 14.5933 80.0802 14.8133 80.0402 15.04L79.1202 20.24C78.9602 21.1467 78.6269 21.8333 78.1202 22.3C77.6269 22.7667 76.9669 23 76.1402 23H71.3602C71.0402 23 70.7936 22.9267 70.6202 22.78C70.4469 22.62 70.3602 22.3933 70.3602 22.1C70.3602 21.9667 70.3669 21.8667 70.3802 21.8L71.0802 17.84C71.1869 17.2533 71.4469 16.7867 71.8602 16.44C72.2869 16.08 72.8002 15.9 73.4002 15.9C73.9336 15.9 74.3602 16.0467 74.6802 16.34C75.0002 16.6333 75.1602 17.0133 75.1602 17.48C75.1602 18.1333 74.9469 18.68 74.5202 19.12C74.0936 19.5467 73.5536 19.76 72.9002 19.76C72.6202 19.76 72.3869 19.7133 72.2002 19.62L71.8402 21.72H76.1402C76.6336 21.72 76.9869 21.6067 77.2002 21.38C77.4269 21.14 77.5869 20.76 77.6802 20.24L78.6002 15.04C78.6269 14.8267 78.6402 14.68 78.6402 14.6C78.6402 14.1467 78.5136 13.7867 78.2602 13.52C78.0069 13.2533 77.6602 13.12 77.2202 13.12H74.6602C73.9936 13.12 73.4336 13.3067 72.9802 13.68C72.5402 14.0533 72.2602 14.5667 72.1402 15.22H70.7402C70.9269 14.1667 71.3669 13.34 72.0602 12.74C72.7669 12.14 73.6336 11.84 74.6602 11.84H77.2202ZM73.2602 16.88C72.9402 16.88 72.6669 16.9933 72.4402 17.22C72.2269 17.4467 72.1202 17.72 72.1202 18.04C72.1202 18.2667 72.1869 18.4533 72.3202 18.6C72.4669 18.7333 72.6669 18.8 72.9202 18.8C73.2536 18.8 73.5269 18.6867 73.7402 18.46C73.9669 18.2333 74.0802 17.96 74.0802 17.64C74.0802 17.4133 74.0069 17.2333 73.8602 17.1C73.7136 16.9533 73.5136 16.88 73.2602 16.88ZM88.6352 11.8C89.1686 11.8 89.5952 11.9467 89.9152 12.24C90.2352 12.52 90.3952 12.8933 90.3952 13.36C90.3952 13.4267 90.3819 13.5533 90.3552 13.74L89.1352 20.64C89.0019 21.3733 88.7152 21.9533 88.2752 22.38C87.8352 22.7933 87.2819 23 86.6152 23H85.6552C85.4152 23 85.1952 22.9333 84.9952 22.8C84.8086 22.6667 84.6686 22.48 84.5752 22.24L82.1352 15.86H83.6952L85.9552 21.76H86.6152C86.8952 21.76 87.1286 21.6667 87.3152 21.48C87.5152 21.28 87.6419 21 87.6952 20.64L88.5952 15.54C88.4086 15.62 88.1819 15.66 87.9152 15.66C87.4219 15.66 87.0219 15.5133 86.7152 15.22C86.4219 14.9267 86.2752 14.54 86.2752 14.06C86.2752 13.4067 86.4952 12.8667 86.9352 12.44C87.3886 12.0133 87.9552 11.8 88.6352 11.8ZM88.1752 14.7C88.4952 14.7 88.7619 14.5867 88.9752 14.36C89.2019 14.1333 89.3152 13.86 89.3152 13.54C89.3152 13.3133 89.2419 13.1333 89.0952 13C88.9619 12.8533 88.7686 12.78 88.5152 12.78C88.1819 12.78 87.9019 12.8933 87.6752 13.12C87.4619 13.3467 87.3552 13.62 87.3552 13.94C87.3552 14.1667 87.4286 14.3533 87.5752 14.5C87.7219 14.6333 87.9219 14.7 88.1752 14.7ZM103.033 10.64L102.953 10.8C102.7 11.2933 102.433 11.6867 102.153 11.98C101.887 12.2733 101.547 12.5 101.133 12.66C101.627 13.0467 101.873 13.62 101.873 14.38C101.873 14.5933 101.853 14.8133 101.813 15.04L100.413 23H98.9734L99.1734 21.86C99.2134 21.5 99.2334 21.1667 99.2334 20.86C99.2334 19.7667 98.9867 18.92 98.4934 18.32C98.0134 17.72 97.32 17.42 96.4134 17.42C95.76 17.42 95.2134 17.5933 94.7734 17.94C94.3467 18.2867 94.08 18.7667 93.9734 19.38L93.9534 19.46C94.1534 19.38 94.3734 19.34 94.6134 19.34C95.1067 19.34 95.5067 19.48 95.8134 19.76C96.12 20.04 96.2734 20.4133 96.2734 20.88C96.2734 21.5733 96.0534 22.1333 95.6134 22.56C95.1867 22.9867 94.62 23.2 93.9134 23.2C93.38 23.2 92.9534 23.06 92.6334 22.78C92.3134 22.4867 92.1534 22.1067 92.1534 21.64C92.1534 21.5467 92.1667 21.42 92.1934 21.26L92.4734 19.62C92.66 18.5267 93.1067 17.6733 93.8134 17.06C94.5334 16.4467 95.4467 16.14 96.5534 16.14C97.3267 16.14 98 16.3067 98.5734 16.64C99.1467 16.9733 99.56 17.44 99.8134 18.04H99.8334L100.373 15.04C100.4 14.8267 100.413 14.6733 100.413 14.58C100.413 14.1267 100.287 13.7733 100.033 13.52C99.7934 13.2533 99.4467 13.12 98.9934 13.12H96.7734C96.1334 13.12 95.58 13.3133 95.1134 13.7C94.6467 14.0867 94.36 14.5933 94.2534 15.22H92.8534C93.04 14.1933 93.48 13.3733 94.1734 12.76C94.8667 12.1467 95.7334 11.84 96.7734 11.84H99.4134C99.96 11.84 100.38 11.7667 100.673 11.62C100.98 11.46 101.253 11.1867 101.493 10.8L101.593 10.64H103.033ZM95.1934 21.06C95.1934 20.8333 95.12 20.6533 94.9734 20.52C94.8267 20.3733 94.6267 20.3 94.3734 20.3C94.0534 20.3 93.78 20.4133 93.5534 20.64C93.34 20.8667 93.2334 21.14 93.2334 21.46C93.2334 21.6867 93.3067 21.8733 93.4534 22.02C93.6 22.1533 93.8 22.22 94.0534 22.22C94.3734 22.22 94.64 22.1067 94.8534 21.88C95.08 21.6533 95.1934 21.38 95.1934 21.06ZM111.353 11.84C112.259 11.84 112.973 12.0667 113.493 12.52C114.013 12.9733 114.273 13.5867 114.273 14.36C114.273 14.56 114.253 14.7733 114.213 15L112.793 23H111.353L112.773 15C112.799 14.8133 112.813 14.68 112.813 14.6C112.813 14.1467 112.666 13.7867 112.373 13.52C112.079 13.2533 111.679 13.12 111.173 13.12H109.333C108.786 13.12 108.239 13.32 107.693 13.72C107.159 14.12 106.726 14.6467 106.393 15.3C106.779 15.5133 107.093 15.7933 107.333 16.14C107.573 16.4867 107.693 16.86 107.693 17.26C107.693 17.34 107.679 17.46 107.653 17.62L107.013 21.26C106.906 21.8467 106.646 22.32 106.233 22.68C105.833 23.0267 105.346 23.2 104.773 23.2C104.266 23.2 103.846 23.0533 103.513 22.76C103.179 22.4667 103.013 22.0867 103.013 21.62C103.013 20.9667 103.226 20.4267 103.653 20C104.079 19.56 104.619 19.34 105.273 19.34C105.513 19.34 105.719 19.3733 105.893 19.44L106.213 17.62C106.226 17.5533 106.233 17.4533 106.233 17.32C106.233 16.9333 106.099 16.62 105.833 16.38C105.579 16.1267 105.219 15.9533 104.753 15.86C104.966 15.1667 105.299 14.5133 105.753 13.9C106.219 13.2733 106.766 12.7733 107.393 12.4C108.019 12.0267 108.666 11.84 109.333 11.84H111.353ZM104.853 22.22C105.186 22.22 105.459 22.1067 105.673 21.88C105.899 21.6533 106.013 21.38 106.013 21.06C106.013 20.8333 105.939 20.6533 105.793 20.52C105.646 20.3733 105.446 20.3 105.193 20.3C104.873 20.3 104.599 20.4133 104.373 20.64C104.159 20.8533 104.053 21.1267 104.053 21.46C104.053 21.6867 104.119 21.8733 104.253 22.02C104.399 22.1533 104.599 22.22 104.853 22.22ZM123.095 15.04C123.122 14.8267 123.135 14.68 123.135 14.6C123.135 14.1467 123.009 13.7867 122.755 13.52C122.502 13.2533 122.155 13.12 121.715 13.12H120.215C119.602 13.12 119.082 13.3267 118.655 13.74C118.242 14.1533 117.969 14.7333 117.835 15.48H116.435C116.635 14.3333 117.069 13.44 117.735 12.8C118.402 12.16 119.229 11.84 120.215 11.84H121.715C122.609 11.84 123.309 12.0733 123.815 12.54C124.335 12.9933 124.595 13.6067 124.595 14.38C124.595 14.5933 124.575 14.8133 124.535 15.04L123.135 23H121.695L123.095 15.04Z" fill="#F94141"/>
<path d="M55 47C55 51.4183 58.5817 55 63 55C67.4183 55 71 51.4183 71 47C71 42.5817 67.4183 39 63 39C58.5817 39 55 42.5817 55 47ZM61.5 268L54.3398 283L71.6603 283L64.5 268L61.5 268ZM61.5 47L61.5 269.5L64.5 269.5L64.5 47L61.5 47Z" fill="#F94141"/>
</svg>
