<?xml version="1.0" standalone="no"?>
<!DOCTYPE svg PUBLIC "-//W3C//DTD SVG 20010904//EN"
 "http://www.w3.org/TR/2001/REC-SVG-20010904/DTD/svg10.dtd">
<svg version="1.0" xmlns="http://www.w3.org/2000/svg"
 width="512.000000pt" height="512.000000pt" viewBox="0 0 512.000000 512.000000"
 preserveAspectRatio="xMidYMid meet">
<metadata>
Created by potrace 1.14, written by Peter Selinger 2001-2017
</metadata>
<g transform="translate(0.000000,512.000000) scale(0.100000,-0.100000)"
fill="#000000" stroke="none">
<path d="M2240 5105 c-405 -56 -769 -193 -1102 -415 -594 -395 -985 -1001
-1109 -1721 -31 -178 -38 -525 -14 -710 124 -993 792 -1813 1732 -2127 248
-83 469 -121 748 -129 358 -10 658 42 989 170 711 274 1263 852 1504 1574 85
253 121 470 129 763 4 169 2 244 -11 350 -53 414 -188 780 -416 1122 -395 594
-999 984 -1721 1109 -163 28 -568 36 -729 14z m515 -1290 c220 -61 359 -312
300 -540 -34 -127 -125 -240 -244 -298 -63 -30 -72 -32 -181 -32 -109 0 -119
2 -183 32 -93 44 -169 119 -215 212 -37 74 -37 77 -37 195 0 115 1 124 32 189
42 89 128 178 207 217 102 50 203 57 321 25z m-1003 -422 c3 -233 4 -251 26
-297 33 -72 94 -147 175 -216 l71 -60 621 0 622 0 74 -51 c41 -29 115 -93 165
-144 187 -189 270 -367 309 -662 20 -150 30 -421 20 -565 l-7 -118 -234 0
-234 0 0 295 c0 321 -1 327 -62 425 l-28 45 0 -382 0 -383 -640 0 -640 0 0
397 0 396 -173 176 c-247 251 -390 438 -452 588 -56 138 -90 440 -78 684 l6
119 228 0 228 0 3 -247z"/>
</g>
</svg>
