<svg xmlns="http://www.w3.org/2000/svg" fill="none" viewBox="0 0 409 427"><path stroke="#000" stroke-width="1.894" d="M235.119 120.362l.151 2.272 1.505-1.708 74.843-84.977-40.876 107.086-.789 2.068 2.04-.857 102.587-43.087-81.318 78.497-1.536 1.483 2.13.143 110.049 7.411-105.669 34.279-1.998.648 1.808 1.068 95.653 56.495-109.017-16.763-2.11-.324 1.176 1.781 62.245 94.34-90.723-64.418-1.805-1.282.32 2.19 16.543 113.422-54.515-99.251-1.096-1.995-.642 2.184-32.355 110.057-7.58-114.464-.151-2.271-1.505 1.708-74.843 84.976 40.876-107.086.789-2.067-2.04.857-102.587 43.087 81.318-78.498 1.535-1.482-2.129-.144-110.049-7.41 105.669-34.28 1.998-.648-1.808-1.067-95.653-56.496 109.017 16.763 2.11.325-1.176-1.782-62.245-94.34 90.723 64.419 1.805 1.281-.32-2.19-16.543-113.421 54.514 99.25 1.097 1.996.642-2.185L227.539 5.899l7.58 114.463z"/></svg>