<svg xmlns="http://www.w3.org/2000/svg" fill="none" viewBox="0 0 1138 643"><path fill="#4F4E4E" d="M223 0l16.617 139.458 68.721-122.483-38.015 135.202 110.362-86.862-86.862 110.362 135.202-38.015-122.483 68.721L446 223l-139.458 16.617 122.483 68.721-135.202-38.015 86.862 110.362-110.362-86.862 38.015 135.202-68.721-122.483L223 446l-16.617-139.458-68.721 122.483 38.015-135.202-110.362 86.862 86.862-110.362-135.202 38.015 122.483-68.721L0 223l139.458-16.617-122.483-68.721 135.202 38.015L65.315 65.315l110.362 86.862-38.015-135.202 68.721 122.483L223 0z"/></svg>